<svg width="15" height="15" viewBox="0 0 15 15" fill="none" xmlns="http://www.w3.org/2000/svg">
<path fill-rule="evenodd" clip-rule="evenodd" d="M3.27296 11.5308C4.30515 12.445 5.66276 13 7.15 13C8.63724 13 9.99485 12.445 11.027 11.5308C10.8368 10.8468 9.4701 10.4 7.15 10.4C4.8299 10.4 3.4632 10.8468 3.27296 11.5308ZM2.34033 10.481C3.07187 9.51474 4.79089 9.1 7.15 9.1C9.50911 9.1 11.2281 9.51474 11.9597 10.481C12.6156 9.53571 13 8.38774 13 7.15C13 3.91913 10.3809 1.3 7.15 1.3C3.91913 1.3 1.3 3.91913 1.3 7.15C1.3 8.38774 1.6844 9.53571 2.34033 10.481ZM7.15 14.3C3.20116 14.3 0 11.0988 0 7.15C0 3.20116 3.20116 0 7.15 0C11.0988 0 14.3 3.20116 14.3 7.15C14.3 11.0988 11.0988 14.3 7.15 14.3ZM4.55 5.85C4.55 4.39124 5.57642 3.25 7.15 3.25C8.71923 3.25 9.75 4.49903 9.75 5.98C9.75 8.11175 8.59176 9.1 7.15 9.1C5.69456 9.1 4.55 8.07779 4.55 5.85ZM5.85 5.85C5.85 7.32502 6.38184 7.8 7.15 7.8C7.91551 7.8 8.45 7.34396 8.45 5.98C8.45 5.16777 7.94018 4.55 7.15 4.55C6.32693 4.55 5.85 5.08029 5.85 5.85Z" fill="black"/>
</svg>
