<svg width="22" height="30" viewBox="0 0 22 30" fill="none" xmlns="http://www.w3.org/2000/svg">
<path d="M6.47998 17.35L9.57998 19.75C9.97998 20.15 10.88 20.35 11.48 20.35H15.28C16.48 20.35 17.78 19.45 18.08 18.25L20.48 10.95C20.98 9.54997 20.08 8.34997 18.58 8.34997H14.58C13.98 8.34997 13.48 7.84997 13.58 7.14997L14.08 3.94997C14.28 3.04997 13.68 2.04997 12.78 1.74997C11.98 1.44997 10.98 1.84997 10.58 2.44997L6.47998 8.54997" stroke="black" stroke-width="1.5" stroke-miterlimit="10"/>
<path d="M1.37988 17.3499V7.5499C1.37988 6.1499 1.97988 5.6499 3.37988 5.6499H4.37988C5.77988 5.6499 6.37988 6.1499 6.37988 7.5499V17.3499C6.37988 18.7499 5.77988 19.2499 4.37988 19.2499H3.37988C1.97988 19.2499 1.37988 18.7499 1.37988 17.3499Z" stroke="black" stroke-width="1.5" stroke-linecap="round" stroke-linejoin="round"/>
<path d="M4 25C2.9 25 2 25.9 2 27C2 28.1 2.9 29 4 29C5.1 29 6 28.1 6 27C6 25.9 5.1 25 4 25ZM18 25C16.9 25 16 25.9 16 27C16 28.1 16.9 29 18 29C19.1 29 20 28.1 20 27C20 25.9 19.1 25 18 25ZM11 25C9.9 25 9 25.9 9 27C9 28.1 9.9 29 11 29C12.1 29 13 28.1 13 27C13 25.9 12.1 25 11 25Z" stroke="black" stroke-width="1.5"/>
</svg>
