<svg width="43" height="40" viewBox="0 0 43 40" fill="none" xmlns="http://www.w3.org/2000/svg">
<path d="M21.715 21.3C21.5723 21.2833 21.4278 21.2833 21.285 21.3C19.7656 21.2524 18.3256 20.6573 17.2691 19.6403C16.2126 18.6233 15.6225 17.2642 15.6234 15.85C15.6234 12.8333 18.2392 10.3833 21.5 10.3833C23.0399 10.3808 24.5191 10.9413 25.6188 11.944C26.7184 12.9466 27.3505 14.3111 27.3787 15.7433C27.4069 17.1754 26.829 18.5606 25.7695 19.6C24.7101 20.6395 23.2539 21.25 21.715 21.3ZM33.5759 32.3C30.2833 35.1151 25.9721 36.674 21.5 36.6666C16.8417 36.6666 12.6134 35.0166 9.42419 32.3C9.60336 30.7333 10.6784 29.2 12.5954 28C17.5046 24.9666 25.5313 24.9666 30.4046 28C32.3217 29.2 33.3967 30.7333 33.5759 32.3Z" stroke="black" stroke-width="1.5" stroke-linecap="round" stroke-linejoin="round"/>
<path d="M21.5 36.6668C31.3953 36.6668 39.4166 29.2052 39.4166 20.0002C39.4166 10.7952 31.3953 3.3335 21.5 3.3335C11.6046 3.3335 3.58331 10.7952 3.58331 20.0002C3.58331 29.2052 11.6046 36.6668 21.5 36.6668Z" stroke="black" stroke-width="1.5" stroke-linecap="round" stroke-linejoin="round"/>
</svg>
