<svg width="30" height="33" viewBox="0 0 30 33" fill="none" xmlns="http://www.w3.org/2000/svg">
<path d="M15 0.25C7.19421 0.25 0.833374 7.54625 0.833374 16.5C0.833374 25.4538 7.19421 32.75 15 32.75C22.8059 32.75 29.1667 25.4538 29.1667 16.5C29.1667 7.54625 22.8059 0.25 15 0.25ZM20.6667 17.7188H16.0625V23C16.0625 23.6663 15.5809 24.2188 15 24.2188C14.4192 24.2188 13.9375 23.6663 13.9375 23V17.7188H9.33337C8.75254 17.7188 8.27087 17.1663 8.27087 16.5C8.27087 15.8337 8.75254 15.2812 9.33337 15.2812H13.9375V10C13.9375 9.33375 14.4192 8.78125 15 8.78125C15.5809 8.78125 16.0625 9.33375 16.0625 10V15.2812H20.6667C21.2475 15.2812 21.7292 15.8337 21.7292 16.5C21.7292 17.1663 21.2475 17.7188 20.6667 17.7188Z" fill="#0262AC"/>
</svg>
