<svg width="47" height="41" viewBox="0 0 47 41" fill="none" xmlns="http://www.w3.org/2000/svg">
<path d="M23.5 11.0015V16.6903M23.5392 3.4165C16.3325 3.4165 10.4967 8.50734 10.4967 14.794V18.3815C10.4967 19.5432 9.94832 21.2857 9.2629 22.2765L6.77582 25.8982C5.24832 28.1361 6.30582 30.6303 9.12582 31.4503C18.4892 34.1665 28.6087 34.1665 37.9721 31.4503C38.5899 31.2705 39.1535 30.9719 39.6213 30.5765C40.0891 30.1812 40.4491 29.6993 40.6747 29.1663C40.9003 28.6333 40.9858 28.0629 40.9247 27.4972C40.8637 26.9315 40.6577 26.3851 40.3221 25.8982L37.835 22.2765C37.1496 21.2857 36.6012 19.5261 36.6012 18.3815V14.794C36.5817 8.5415 30.7067 3.4165 23.5392 3.4165Z" stroke="black" stroke-width="1.5" stroke-miterlimit="10" stroke-linecap="round"/>
<path d="M30.0213 32.1509C30.0213 35.2771 27.0838 37.8396 23.5 37.8396C21.7179 37.8396 20.0729 37.1905 18.8979 36.1655C17.7229 35.1405 16.9788 33.7055 16.9788 32.1509" stroke="black" stroke-width="1.5" stroke-miterlimit="10"/>
</svg>
