<svg width="48" height="40" viewBox="0 0 48 40" fill="none" xmlns="http://www.w3.org/2000/svg">
<rect width="47.0326" height="38" rx="19" fill="#656DA2"/>
<g filter="url(#filter0_d_932_132)">
<path d="M33.0395 13.8649C23.5163 13.8649 23.5163 13.8649 23.5163 22.2523C18.2569 22.2523 13.9932 18.4972 13.9932 13.8649C13.9932 9.2327 18.2569 5.47754 23.5163 5.47754C28.7758 5.47754 33.0395 9.2327 33.0395 13.8649Z" fill="#4335B2"/>
</g>
<g filter="url(#filter1_d_932_132)">
<path d="M33.4282 23.793C33.4282 28.0471 29.0775 31.4957 23.7107 31.4957C18.3439 31.4957 13.9932 28.0471 13.9932 23.793C23.7107 23.793 23.7107 23.793 23.7107 16.0903C29.0775 16.0903 33.4282 19.5389 33.4282 23.793Z" fill="#EC6F00"/>
</g>
<defs>
<filter id="filter0_d_932_132" x="9.99321" y="5.47754" width="27.0463" height="24.7749" filterUnits="userSpaceOnUse" color-interpolation-filters="sRGB">
<feFlood flood-opacity="0" result="BackgroundImageFix"/>
<feColorMatrix in="SourceAlpha" type="matrix" values="0 0 0 0 0 0 0 0 0 0 0 0 0 0 0 0 0 0 127 0" result="hardAlpha"/>
<feOffset dy="4"/>
<feGaussianBlur stdDeviation="2"/>
<feComposite in2="hardAlpha" operator="out"/>
<feColorMatrix type="matrix" values="0 0 0 0 0 0 0 0 0 0 0 0 0 0 0 0 0 0 0.25 0"/>
<feBlend mode="normal" in2="BackgroundImageFix" result="effect1_dropShadow_932_132"/>
<feBlend mode="normal" in="SourceGraphic" in2="effect1_dropShadow_932_132" result="shape"/>
</filter>
<filter id="filter1_d_932_132" x="9.99321" y="16.0903" width="27.435" height="23.4053" filterUnits="userSpaceOnUse" color-interpolation-filters="sRGB">
<feFlood flood-opacity="0" result="BackgroundImageFix"/>
<feColorMatrix in="SourceAlpha" type="matrix" values="0 0 0 0 0 0 0 0 0 0 0 0 0 0 0 0 0 0 127 0" result="hardAlpha"/>
<feOffset dy="4"/>
<feGaussianBlur stdDeviation="2"/>
<feComposite in2="hardAlpha" operator="out"/>
<feColorMatrix type="matrix" values="0 0 0 0 0 0 0 0 0 0 0 0 0 0 0 0 0 0 0.25 0"/>
<feBlend mode="normal" in2="BackgroundImageFix" result="effect1_dropShadow_932_132"/>
<feBlend mode="normal" in="SourceGraphic" in2="effect1_dropShadow_932_132" result="shape"/>
</filter>
</defs>
</svg>
